<svg xmlns="http://www.w3.org/2000/svg" viewBox="0 0 120 120" fill="none" aria-hidden="true">
  <!-- Sfondo trasparente, forma della testa bianca con bordo nero -->
  <circle cx="60" cy="60" r="52" fill="white" stroke="#1a1a1a" stroke-width="2.5"/>
  <!-- Orecchie -->
  <circle cx="32" cy="28" r="18" fill="#1a1a1a"/>
  <circle cx="88" cy="28" r="18" fill="#1a1a1a"/>
  <!-- Bandana -->
  <path d="M25 42 Q60 32 95 42 L90 52 Q60 48 30 52 Z" fill="#2c3e50"/>
  <path d="M88 42 L92 48 Q60 44 28 48 L32 42 Q60 36 88 42Z" fill="#1a252f"/>
  <!-- Cerchi occhi neri (patch) -->
  <ellipse cx="42" cy="58" rx="14" ry="12" fill="#1a1a1a"/>
  <ellipse cx="78" cy="58" rx="14" ry="12" fill="#1a1a1a"/>
  <!-- Occhi neri pieni con riflesso bianco -->
  <ellipse cx="42" cy="58" rx="10" ry="8" fill="#0d0d0d"/>
  <ellipse cx="78" cy="58" rx="10" ry="8" fill="#0d0d0d"/>
  <circle cx="44" cy="56" r="2.5" fill="white"/>
  <circle cx="80" cy="56" r="2.5" fill="white"/>
  <!-- Naso -->
  <ellipse cx="60" cy="72" rx="6" ry="5" fill="#1a1a1a"/>
  <!-- Bocca -->
  <path d="M52 82 Q60 86 68 82" stroke="#1a1a1a" stroke-width="1.5" fill="none" stroke-linecap="round"/>
</svg>
